<svg width="22" height="23" viewBox="0 0 22 23" fill="none" xmlns="http://www.w3.org/2000/svg">
<path d="M17.0233 5.8278C17.4279 5.73916 17.6841 5.33929 17.5954 4.93467C17.5068 4.53006 17.1069 4.27391 16.7023 4.36256L16.8628 5.09518L17.0233 5.8278ZM9.55494 22.1277C9.93999 22.2803 10.3759 22.0919 10.5286 21.7069L13.0164 15.4321C13.169 15.047 12.9806 14.6111 12.5956 14.4584C12.2105 14.3058 11.7746 14.4942 11.622 14.8792L9.41058 20.4568L3.83296 18.2455C3.44791 18.0928 3.012 18.2812 2.85934 18.6662C2.70667 19.0513 2.89507 19.4872 3.28012 19.6399L9.55494 22.1277ZM13.473 5.83784L13.3125 5.10522L13.473 5.83784ZM16.8628 5.09518L16.7023 4.36256L13.3125 5.10522L13.473 5.83784L13.6335 6.57047L17.0233 5.8278L16.8628 5.09518ZM7.84151 16.8262L7.15305 17.1238L9.1429 21.728L9.83136 21.4305L10.5198 21.1329L8.52996 16.5287L7.84151 16.8262ZM13.473 5.83784L13.3125 5.10522C7.93664 6.28298 4.96979 12.072 7.15305 17.1238L7.84151 16.8262L8.52996 16.5287C6.72098 12.343 9.17922 7.54633 13.6335 6.57047L13.473 5.83784Z" fill="#D8F3E8"/>
</svg>
