<svg width="40" height="40" viewBox="0 0 40 40" fill="none" xmlns="http://www.w3.org/2000/svg">
<path d="M31.0937 27.6284C31.707 27.078 31.4977 26.0706 30.7159 25.81C30.6064 25.7735 30.4917 25.7549 30.3763 25.7549H14.6335C10.711 25.7549 7.53114 28.9347 7.53114 32.8572C7.53114 39.0015 14.8045 42.247 19.3773 38.1431L31.0937 27.6284Z" fill="#ECF9F4"/>
<path d="M22.4503 33.2385C23.2732 33.283 23.8376 32.4226 23.469 31.6856C23.4174 31.5823 23.3495 31.4881 23.2678 31.4064L12.136 20.2746C9.36238 17.501 4.8654 17.501 2.09174 20.2746C-2.25291 24.6193 0.595225 32.0572 6.73053 32.3888L22.4503 33.2385Z" fill="#ECF9F4"/>
<path d="M12.3716 31.0937C12.922 31.707 13.9294 31.4977 14.19 30.7159C14.2265 30.6064 14.2451 30.4917 14.2451 30.3763V14.6335C14.2451 10.711 11.0653 7.53114 7.14276 7.53114C0.998493 7.53114 -2.24695 14.8045 1.85686 19.3773L12.3716 31.0937Z" fill="#ECF9F4"/>
<path d="M6.76148 22.4503C6.717 23.2732 7.57738 23.8376 8.31442 23.469C8.41768 23.4174 8.51194 23.3495 8.59358 23.2678L19.7254 12.136C22.499 9.36238 22.499 4.8654 19.7254 2.09174C15.3807 -2.25291 7.94283 0.595225 7.6112 6.73053L6.76148 22.4503Z" fill="#ECF9F4"/>
<path d="M8.90631 12.3716C8.29303 12.922 8.50232 13.9294 9.28407 14.19C9.39359 14.2265 9.50829 14.2451 9.62374 14.2451L25.3665 14.2451C29.289 14.2451 32.4689 11.0653 32.4689 7.14276C32.4689 0.998494 25.1955 -2.24695 20.6227 1.85686L8.90631 12.3716Z" fill="#ECF9F4"/>
<path d="M17.5497 6.76148C16.7268 6.717 16.1624 7.57738 16.531 8.31442C16.5826 8.41768 16.6505 8.51194 16.7322 8.59358L27.864 19.7254C30.6376 22.499 35.1346 22.499 37.9083 19.7254C42.2529 15.3807 39.4048 7.94284 33.2695 7.6112L17.5497 6.76148Z" fill="#ECF9F4"/>
<path d="M27.6284 8.90631C27.078 8.29303 26.0706 8.50232 25.81 9.28407C25.7735 9.39359 25.7549 9.50829 25.7549 9.62374V25.3665C25.7549 29.289 28.9347 32.4689 32.8572 32.4689C39.0015 32.4689 42.247 25.1955 38.1431 20.6227L27.6284 8.90631Z" fill="#ECF9F4"/>
<path d="M33.2385 17.5497C33.283 16.7269 32.4226 16.1625 31.6856 16.531C31.5823 16.5826 31.4881 16.6505 31.4064 16.7322L20.2746 27.864C17.501 30.6376 17.501 35.1346 20.2746 37.9083C24.6193 42.2529 32.0572 39.4048 32.3888 33.2695L33.2385 17.5497Z" fill="#ECF9F4"/>
</svg>
