<svg width="32" height="43" viewBox="0 0 32 43" fill="none" xmlns="http://www.w3.org/2000/svg">
<path d="M30.6846 20.7898H31.6846C31.6846 20.2375 31.2369 19.7898 30.6846 19.7898V20.7898ZM29.5547 26.4695L30.4786 26.8522L30.4786 26.8522L29.5547 26.4695ZM26.3379 31.2849L27.045 31.992L27.045 31.992L26.3379 31.2849ZM21.5225 34.5027L21.9051 35.4266L21.9051 35.4266L21.5225 34.5027ZM18.5068 35.3904L18.3273 34.4066C17.8521 34.4933 17.5068 34.9073 17.5068 35.3904H18.5068ZM18.5068 37.1736H17.5068C17.5068 37.5147 17.6807 37.8323 17.9681 38.0161L18.5068 37.1736ZM19.3408 37.8425L20.048 37.1354L20.0479 37.1354L19.3408 37.8425ZM20.4131 39.447L21.337 39.0643L21.3369 39.0643L20.4131 39.447ZM20.79 41.3406V42.3406C21.0553 42.3406 21.3096 42.2352 21.4972 42.0477C21.6847 41.8601 21.79 41.6058 21.79 41.3405L20.79 41.3406ZM10.8945 41.3406L9.89453 41.3405C9.89452 41.6058 9.99988 41.8601 10.1874 42.0477C10.3749 42.2352 10.6293 42.3406 10.8945 42.3406V41.3406ZM11.2715 39.447L10.3476 39.0643L10.3476 39.0643L11.2715 39.447ZM12.3438 37.8425L11.6366 37.1354L11.6366 37.1355L12.3438 37.8425ZM12.7979 37.4431L13.4134 38.2312C13.656 38.0417 13.7979 37.751 13.7979 37.4431H12.7979ZM12.7979 35.3152H13.7979C13.7979 34.842 13.4661 34.4335 13.003 34.3365L12.7979 35.3152ZM10.1621 34.5027L9.77942 35.4266L9.77943 35.4266L10.1621 34.5027ZM5.34766 31.2849L4.64055 31.992L4.64056 31.992L5.34766 31.2849ZM2.12988 26.4695L1.206 26.8522L1.206 26.8522L2.12988 26.4695ZM1 20.7898V19.7898C0.447715 19.7898 5.96046e-08 20.2375 0 20.7898L1 20.7898ZM30.6846 20.7898H29.6846C29.6846 22.6075 29.3264 24.4074 28.6308 26.0868L29.5547 26.4695L30.4786 26.8522C31.2747 24.9302 31.6846 22.8702 31.6846 20.7898H30.6846ZM29.5547 26.4695L28.6308 26.0868C27.9351 27.7663 26.9159 29.2926 25.6308 30.5778L26.3379 31.2849L27.045 31.992C28.5161 30.5208 29.6825 28.774 30.4786 26.8522L29.5547 26.4695ZM26.3379 31.2849L25.6308 30.5778C24.3454 31.8632 22.8191 32.8832 21.1398 33.5788L21.5225 34.5027L21.9051 35.4266C23.8273 34.6304 25.5739 33.4631 27.045 31.992L26.3379 31.2849ZM21.5225 34.5027L21.1398 33.5788C20.2328 33.9545 19.2897 34.231 18.3273 34.4066L18.5068 35.3904L18.6864 36.3741C19.7865 36.1734 20.8658 35.8571 21.9051 35.4266L21.5225 34.5027ZM18.5068 35.3904H17.5068V37.1736H18.5068H19.5068V35.3904H18.5068ZM18.5068 37.1736L17.9681 38.0161C18.2097 38.1706 18.4332 38.3491 18.6337 38.5496L19.3408 37.8425L20.0479 37.1354C19.7418 36.8293 19.4047 36.5608 19.0455 36.3311L18.5068 37.1736ZM19.3408 37.8425L18.6337 38.5496C19.0002 38.9161 19.2909 39.3511 19.4892 39.8298L20.4131 39.447L21.3369 39.0643C21.038 38.3428 20.6 37.6875 20.048 37.1354L19.3408 37.8425ZM20.4131 39.447L19.4892 39.8297C19.6877 40.3088 19.79 40.8225 19.79 41.3406L20.79 41.3406L21.79 41.3405C21.79 40.5593 21.6357 39.7856 21.337 39.0643L20.4131 39.447ZM20.79 41.3406V40.3406H10.8945V41.3406V42.3406H20.79V41.3406ZM10.8945 41.3406L11.8945 41.3406C11.8945 40.8225 11.9969 40.3088 12.1954 39.8297L11.2715 39.447L10.3476 39.0643C10.0488 39.7856 9.89456 40.5593 9.89453 41.3405L10.8945 41.3406ZM11.2715 39.447L12.1953 39.8298C12.3936 39.3512 12.6844 38.9161 13.0509 38.5496L12.3438 37.8425L11.6366 37.1355C11.0846 37.6875 10.6465 38.3428 10.3476 39.0643L11.2715 39.447ZM12.3438 37.8425L13.0509 38.5496C13.161 38.4395 13.2822 38.3337 13.4134 38.2312L12.7979 37.4431L12.1823 36.655C11.9962 36.8004 11.8124 36.9597 11.6366 37.1354L12.3438 37.8425ZM12.7979 37.4431H13.7979V35.3152H12.7979H11.7979V37.4431H12.7979ZM12.7979 35.3152L13.003 34.3365C12.1628 34.1603 11.3394 33.9079 10.5448 33.5788L10.1621 34.5027L9.77943 35.4266C10.6913 35.8043 11.6338 36.0929 12.5927 36.2939L12.7979 35.3152ZM10.1621 34.5027L10.5448 33.5788C8.86575 32.8833 7.34024 31.8632 6.05475 30.5778L5.34766 31.2849L4.64056 31.992C6.11139 33.4628 7.85726 34.6304 9.77942 35.4266L10.1621 34.5027ZM5.34766 31.2849L6.05476 30.5778C4.76934 29.2924 3.74938 27.7662 3.05376 26.0868L2.12988 26.4695L1.206 26.8522C2.00218 28.7743 3.16949 30.521 4.64055 31.992L5.34766 31.2849ZM2.12988 26.4695L3.05377 26.0868C2.35815 24.4074 2 22.6075 2 20.7898L1 20.7898L0 20.7898C-2.38419e-07 22.8702 0.409917 24.9302 1.206 26.8522L2.12988 26.4695ZM1 20.7898V21.7898H30.6846V20.7898V19.7898H1V20.7898Z" fill="#257454"/>
<path d="M12.5709 35.3406H12H18.66" stroke="#257454" stroke-width="1.8"/>
<line x1="12.7979" y1="36.9045" x2="17.7453" y2="36.9045" stroke="#257454" stroke-width="0.5" stroke-dasharray="2 2"/>
<path d="M15.5127 1L15.5127 0H15.5127V1ZM24.9951 8.51172L25.9951 8.51177V8.51172H24.9951ZM22.793 13.3213L22.1047 12.5958C21.8299 12.8565 21.726 13.2502 21.8363 13.6126C21.9467 13.975 22.2523 14.2439 22.6258 14.3072L22.793 13.3213ZM24.4404 13.7129L24.738 12.7582L24.738 12.7582L24.4404 13.7129ZM27.7227 15.3633L28.324 14.5643L28.3239 14.5642L27.7227 15.3633ZM29.915 17.832L30.7911 17.3498L30.7911 17.3498L29.915 17.832ZM30.6846 20.7451V21.7451C30.9498 21.7451 31.2041 21.6398 31.3917 21.4522C31.5792 21.2647 31.6846 21.0103 31.6846 20.7451L30.6846 20.7451ZM30.0244 20.7451V19.7451C29.7573 19.7451 29.5012 19.852 29.3134 20.042C29.1255 20.2319 29.0215 20.4892 29.0245 20.7563L30.0244 20.7451ZM30.0254 20.79V21.79C30.5777 21.79 31.0254 21.3423 31.0254 20.79H30.0254ZM1 20.79H0C-1.19209e-07 21.0553 0.105357 21.3096 0.292893 21.4971C0.48043 21.6847 0.734783 21.79 1 21.79V20.79ZM5.25098 15.4072L4.78655 14.5216L4.78651 14.5216L5.25098 15.4072ZM9.02148 13.9844L9.27519 14.9517C9.64695 14.8541 9.92993 14.5522 10.0032 14.1749C10.0764 13.7976 9.92693 13.4118 9.61865 13.1823L9.02148 13.9844ZM6.03027 8.51172H5.03027V8.51177L6.03027 8.51172ZM15.5127 1L15.5127 2C20.4269 2.00002 23.9951 5.12025 23.9951 8.51172H24.9951H25.9951C25.9951 3.60636 21.072 2.53916e-05 15.5127 0L15.5127 1ZM24.9951 8.51172L23.9951 8.51167C23.995 10.0241 23.3134 11.4491 22.1047 12.5958L22.793 13.3213L23.4812 14.0468C25.0197 12.5872 25.995 10.6602 25.9951 8.51177L24.9951 8.51172ZM22.793 13.3213L22.6258 14.3072C23.1463 14.3955 23.6539 14.5152 24.1429 14.6676L24.4404 13.7129L24.738 12.7582C24.1581 12.5775 23.5629 12.4376 22.9601 12.3354L22.793 13.3213ZM24.4404 13.7129L24.1429 14.6676C25.2708 15.0192 26.2818 15.5306 27.1214 16.1623L27.7227 15.3633L28.3239 14.5642C27.285 13.7824 26.0644 13.1716 24.738 12.7582L24.4404 13.7129ZM27.7227 15.3633L27.1214 16.1623C27.9606 16.7939 28.6064 17.5285 29.039 18.3143L29.915 17.832L30.7911 17.3498C30.2071 16.289 29.3628 15.346 28.324 14.5643L27.7227 15.3633ZM29.915 17.832L29.039 18.3143C29.4704 19.098 29.6846 19.9232 29.6846 20.7451L30.6846 20.7451L31.6846 20.7451C31.6845 19.568 31.3763 18.4129 30.7911 17.3498L29.915 17.832ZM30.6846 20.7451V19.7451H30.0244V20.7451V21.7451H30.6846V20.7451ZM30.0244 20.7451L29.0245 20.7563C29.0246 20.767 29.0248 20.7762 29.025 20.7828C29.0251 20.7887 29.0254 20.7954 29.0254 20.7973C29.0255 20.8005 29.0255 20.8006 29.0255 20.7998C29.0255 20.7988 29.0254 20.7952 29.0254 20.79H30.0254H31.0254C31.0254 20.7662 31.0247 20.7455 31.0245 20.7378C31.0244 20.7322 31.0243 20.7314 31.0243 20.7298C31.0243 20.7289 31.0243 20.7307 31.0244 20.7339L30.0244 20.7451ZM30.0254 20.79V19.79H1V20.79V21.79H30.0254V20.79ZM1 20.79H2C2 19.3168 3.13394 17.6467 5.71544 16.2928L5.25098 15.4072L4.78651 14.5216C1.92469 16.0226 7.15256e-07 18.2259 0 20.79H1ZM5.25098 15.4072L5.7154 16.2928C6.75041 15.7501 7.9534 15.2983 9.27519 14.9517L9.02148 13.9844L8.76778 13.0171C7.32609 13.3952 5.97752 13.8971 4.78655 14.5216L5.25098 15.4072ZM9.02148 13.9844L9.61865 13.1823C7.97704 11.9601 7.03036 10.2915 7.03027 8.51167L6.03027 8.51172L5.03027 8.51177C5.0304 11.0488 6.38537 13.2685 8.42432 14.7865L9.02148 13.9844ZM6.03027 8.51172H7.03027C7.03027 5.12023 10.5984 2 15.5127 2V1V0C9.95337 0 5.03027 3.60635 5.03027 8.51172H6.03027Z" fill="#257454"/>
</svg>
