<svg width="167" height="116" viewBox="0 0 167 116" fill="none" xmlns="http://www.w3.org/2000/svg">
<path d="M89.802 6.44122C90.0804 4.46751 91.7695 3 93.7627 3H159.677C162.009 3 163.846 4.98533 163.665 7.30944L155.751 109.309C155.589 111.392 153.852 113 151.763 113H79.3729C76.9416 113 75.0725 110.849 75.4122 108.441L89.802 6.44122Z" stroke="#194D38" stroke-width="6" stroke-linejoin="round"/>
<path d="M75 87.583C20.1428 87.583 2.14282 87.583 -3.93391e-05 87.583" stroke="#194D38" stroke-width="6" stroke-linecap="round" stroke-dasharray="12 16 45 0"/>
<path d="M75 28C33.5524 28 19.9523 28 18.3333 28" stroke="#194D38" stroke-width="6" stroke-linecap="round" stroke-dasharray="12 16 45 0"/>
<path d="M75 57.791C26.2381 57.791 10.2381 57.791 8.33329 57.791" stroke="#194D38" stroke-width="6" stroke-linecap="round" stroke-dasharray="12 16 45 0"/>
<path d="M134.106 4.88829C134.046 3.82877 133.17 3 132.109 3H125.005C123.993 3 123.14 3.75665 123.02 4.76194L119.742 32.1015C119.572 33.5193 120.9 34.6534 122.274 34.2636L133.998 30.9371C134.899 30.6816 135.501 29.8358 135.449 28.9013L134.106 4.88829Z" fill="#194D38"/>
</svg>
