<svg width="60" height="60" viewBox="0 0 60 60" fill="none" xmlns="http://www.w3.org/2000/svg">
<rect width="60" height="60" rx="2" fill="#ECF9F4"/>
<path d="M30.0074 10.0004C30.2884 9.99911 30.5612 10.0145 30.8242 10.0477C30.8292 10.0482 30.8343 10.0485 30.8393 10.0491C33.1405 10.295 35.9713 11.4467 38.717 12.9911C41.4712 14.5403 44.1822 16.5089 46.25 18.431C47.2837 19.3918 48.1648 20.3485 48.8108 21.2424C49.4498 22.1265 49.8896 22.9906 49.9819 23.7613C50.029 24.1545 49.9874 24.5383 49.8207 24.8856C49.653 25.2351 49.3743 25.5152 49.0028 25.7241C48.5554 25.9757 47.9636 26.1296 47.2266 26.1895C47.5725 26.5168 47.8479 26.909 48.0552 27.3548C48.4796 28.2678 48.6123 29.386 48.5305 30.6041C48.367 33.0388 47.3377 35.9946 45.8121 38.8383C44.2838 41.6871 42.2373 44.4614 40.0028 46.5295C37.7804 48.5864 35.311 50 32.9412 50C31.8858 50 30.9073 49.8623 30 49.6036C29.0927 49.8623 28.1142 50 27.0588 50C24.689 50 22.2196 48.5864 19.9972 46.5295C17.7627 44.4614 15.7162 41.6871 14.1879 38.8383C12.6623 35.9946 11.633 33.0388 11.4695 30.6041C11.3877 29.386 11.5204 28.2678 11.9448 27.3548C12.1521 26.9091 12.4273 26.5168 12.7731 26.1895C12.0362 26.1295 11.4446 25.9757 10.9972 25.7241C10.6257 25.5152 10.347 25.2351 10.1793 24.8856C10.0126 24.5383 9.97103 24.1545 10.0181 23.7613C10.1104 22.9906 10.5502 22.1265 11.1892 21.2424C11.8352 20.3485 12.7163 19.3918 13.75 18.431C15.8178 16.5089 18.5288 14.5403 21.283 12.9911C24.0287 11.4467 26.8595 10.295 29.1607 10.0491C29.1657 10.0485 29.1706 10.0482 29.1756 10.0477C29.4402 10.0143 29.7147 9.99864 29.9975 10.0001C29.9983 10.0001 29.9992 10.0004 30 10.0004C30.0008 10.0004 30.0017 10.0001 30.0025 10.0001C30.0041 10.0001 30.0058 10.0004 30.0074 10.0004ZM16.3061 25.9642C15.5929 26.0779 14.9485 26.1522 14.3695 26.1895C13.5784 26.4758 13.0425 26.9985 12.7112 27.711C12.3671 28.4512 12.2365 29.4136 12.3126 30.5475C12.4651 32.8172 13.4378 35.6523 14.9326 38.4386C16.4247 41.2199 18.4168 43.9153 20.5711 45.9092C22.7374 47.9142 25.0073 49.1549 27.0588 49.1549C27.5717 49.1549 28.0625 49.1201 28.5324 49.0531C25.2849 47.5212 23.1772 44.2952 21.7333 40.5505C20.1208 36.3684 19.2962 31.4372 18.66 27.2241C17.7491 26.668 16.9543 26.2226 16.3061 25.9642ZM43.6936 25.9642C43.0454 26.2226 42.2506 26.668 41.3397 27.2241C40.7035 31.4372 39.8792 36.3684 38.2667 40.5505C36.8227 44.2953 34.7149 47.5213 31.4673 49.0531C31.9373 49.1201 32.4282 49.1549 32.9412 49.1549C34.9927 49.1549 37.2626 47.9142 39.4289 45.9092C41.5832 43.9153 43.5753 41.2199 45.0674 38.4386C46.5622 35.6523 47.5349 32.8172 47.6874 30.5475C47.7635 29.4136 47.6329 28.4512 47.2888 27.711C46.9575 26.9984 46.4215 26.4758 45.6303 26.1895C45.0512 26.1522 44.4069 26.0779 43.6936 25.9642ZM40.3953 27.8114C39.2946 28.5058 37.9481 29.4012 36.6942 30.1351L37.2422 30.9459C37.3577 31.1487 37.3309 31.2974 37.1281 31.4129C36.9254 31.5284 36.6673 31.4577 36.5518 31.255L36.0916 30.4471C34.9405 31.0905 33.7702 31.6658 32.6381 32.0624C31.8298 32.5121 30.6774 33.9632 29.7441 33.919C28.8108 33.9632 28.1699 32.5122 27.3616 32.0624C24.7432 31.145 21.9195 29.2719 19.6044 27.8114C20.2262 31.8557 21.0345 36.3895 22.5217 40.2465C24.1066 44.3567 26.4222 47.595 30 48.7217C33.5778 47.595 35.8934 44.3567 37.4783 40.2465C38.9655 36.3896 39.7736 31.8556 40.3953 27.8114ZM30 22.9099C26.8984 23.7311 23.2719 24.6663 19.2476 25.4413C19.3095 25.8559 19.3725 26.2784 19.4371 26.7097C20.7385 27.5162 22.1768 28.464 23.6455 29.3228C23.2446 28.916 22.7216 28.3784 23.1326 27.8378C23.1767 27.7798 22.3164 28.6105 25.2503 28.6494C27.3849 28.6105 27.5038 27.7416 27.5038 27.7416C27.5038 28.5964 27.0278 29.3397 26.3265 29.7217C26.4337 29.9828 26.5363 30.1886 26.6409 30.3577C26.9093 30.7917 27.195 30.9943 27.7099 31.2888C28.5159 31.5661 29.2849 31.741 30 31.7799C30.7147 31.741 31.4831 31.5663 32.2885 31.2894C33.0718 30.8324 33.6805 30.0273 34.2958 28.6494L31.9416 29.991C31.7627 30.1351 31.4808 30.0357 31.3653 29.8331C31.2498 29.6303 31.3204 29.3723 31.5232 29.2568L34.8275 27.8378C35.0303 27.7224 35.2883 27.793 35.4038 27.9957L36.2833 29.3243C37.7338 28.4736 39.2766 27.5067 40.5626 26.7097C40.6273 26.2784 40.6903 25.8559 40.7521 25.4413C36.728 24.6663 33.1015 23.731 30 22.9099ZM24.723 29.9324C25.0584 30.1142 25.3943 30.288 25.729 30.452C25.658 30.3089 25.5882 30.1519 25.5185 29.9783C25.4306 29.9887 25.3411 29.9951 25.2503 29.9951C25.0687 29.9951 24.8922 29.973 24.723 29.9324ZM35.1466 28.788C34.9184 29.4103 34.6522 29.9499 34.3511 30.4124C34.7913 30.1947 35.233 29.9595 35.6734 29.7131L35.1466 28.788ZM18.4166 25.5981C18.1954 25.6389 17.9732 25.6795 17.7498 25.7191C17.9913 25.8491 18.2412 25.9906 18.4977 26.1411C18.4705 25.9584 18.4433 25.7773 18.4166 25.5981ZM41.502 26.1411C41.7586 25.9906 42.0084 25.8491 42.25 25.7191C42.0265 25.6795 41.8043 25.6389 41.5832 25.5981C41.5564 25.7773 41.5292 25.9584 41.502 26.1411ZM30 10.8452C29.7628 10.8466 29.5148 10.8613 29.257 10.8886C28.9181 10.9331 28.6121 11.0119 28.3401 11.1244C28.2197 11.1741 28.0895 11.1639 27.9825 11.1079C26.0927 11.5438 23.8941 12.4919 21.6973 13.7275C18.9967 15.2466 16.3404 17.1767 14.3252 19.0499C13.3174 19.9867 12.4779 20.9019 11.8741 21.7372C11.2633 22.5823 10.9238 23.305 10.8571 23.8617C10.8247 24.1323 10.8587 24.3478 10.9413 24.52C11.023 24.6901 11.1674 24.8502 11.4114 24.9874C11.9125 25.2692 12.7962 25.4323 14.2025 25.3527C14.8142 25.1515 15.522 25.0672 16.327 25.1049C16.9909 24.996 17.6456 24.8812 18.2906 24.7621C18.1869 24.0762 18.0862 23.4216 17.9836 22.8057C17.8208 21.8284 17.9799 21.0341 18.6141 20.5417C19.2023 20.0851 20.0885 19.9877 21.1091 20.0551C23.1536 20.1901 26.2198 21.0339 30 22.036C33.7802 21.0339 36.8464 20.1901 38.8909 20.0551C39.9115 19.9877 40.7977 20.0851 41.3859 20.5417C42.0201 21.0341 42.1792 21.8284 42.0164 22.8057C41.9138 23.4217 41.8128 24.0761 41.7091 24.7621C42.3542 24.8812 43.0088 24.996 43.6727 25.1049C44.4777 25.0672 45.1855 25.1515 45.7972 25.3527C47.2037 25.4323 48.0875 25.2692 48.5886 24.9874C48.8326 24.8502 48.977 24.6901 49.0587 24.52C49.1413 24.3478 49.1753 24.1323 49.1429 23.8617C49.0762 23.305 48.7367 22.5823 48.1259 21.7372C47.5221 20.9019 46.6826 19.9867 45.6748 19.0499C43.6596 17.1767 41.0034 15.2466 38.3027 13.7275C36.1058 12.4918 33.9071 11.5437 32.0172 11.1079C31.9102 11.1638 31.7802 11.1741 31.6599 11.1244C31.3879 11.0119 31.0817 10.9331 30.7427 10.8886C30.485 10.8613 30.2372 10.8466 30 10.8452ZM21.0533 20.8982C20.0626 20.8328 19.4573 20.9571 19.1324 21.2094C18.8534 21.4259 18.6777 21.8281 18.8174 22.6668C18.9194 23.2793 19.0191 23.9282 19.1213 24.6048C22.4987 23.9532 25.5961 23.1879 28.3445 22.4712C25.2068 21.6398 22.7436 21.0099 21.0533 20.8982ZM40.8677 21.2094C40.5427 20.9571 39.9374 20.8328 38.9467 20.8982C37.2563 21.0099 34.7931 21.6398 31.6552 22.4712C34.4036 23.1879 37.501 23.9532 40.8784 24.6048C40.9807 23.9282 41.0806 23.2793 41.1826 22.6668C41.3223 21.8281 41.1466 21.4259 40.8677 21.2094Z" fill="#257455"/>
</svg>
