<svg width="229" height="44" viewBox="0 0 229 44" fill="none" xmlns="http://www.w3.org/2000/svg">
<path d="M21.9685 0.000403746C22.277 -0.000973984 22.5765 0.0159752 22.8653 0.0523565C22.8708 0.0529382 22.8764 0.0532755 22.8819 0.0538667C25.4087 0.323965 28.5169 1.58852 31.5318 3.2843C34.5559 4.98532 37.5327 7.14692 39.8032 9.25735C40.9382 10.3124 41.9056 11.3628 42.615 12.3443C43.3166 13.3151 43.7994 14.2639 43.9008 15.1102C43.9525 15.5419 43.9068 15.9633 43.7238 16.3447C43.5397 16.7283 43.2337 17.0359 42.8258 17.2653C42.3345 17.5416 41.6847 17.7105 40.8754 17.7764C41.2553 18.1358 41.5576 18.5664 41.7852 19.0559C42.2513 20.0583 42.397 21.2861 42.3072 22.6237C42.1276 25.297 40.9974 28.5425 39.3223 31.665C37.6442 34.793 35.3971 37.8392 32.9436 40.11C30.5033 42.3685 27.7919 43.9207 25.1899 43.9207C24.031 43.9207 22.9566 43.7695 21.9603 43.4854C20.9641 43.7695 19.8897 43.9207 18.7308 43.9207C16.1288 43.9207 13.4174 42.3685 10.9771 40.11C8.52361 37.8392 6.27649 34.793 4.59839 31.665C2.92327 28.5425 1.79306 25.297 1.61352 22.6237C1.52369 21.2861 1.66942 20.0583 2.13546 19.0559C2.363 18.5665 2.66517 18.1357 3.04494 17.7764C2.23581 17.7105 1.58615 17.5416 1.09489 17.2653C0.687022 17.0359 0.381019 16.7283 0.196894 16.3447C0.0138877 15.9633 -0.0318093 15.5419 0.0198919 15.1102C0.121238 14.2639 0.604097 13.3151 1.30573 12.3443C2.01512 11.3628 2.98252 10.3124 4.11753 9.25735C6.388 7.14692 9.36477 4.98532 12.3889 3.2843C15.4038 1.58852 18.512 0.323965 21.0388 0.0538667C21.0442 0.0532862 21.0497 0.0529279 21.0551 0.0523565C21.3456 0.0157354 21.6471 -0.00149653 21.9576 0.000101695C21.9585 9.64466e-05 21.9594 0.000408689 21.9603 0.000403746C21.9612 0.000408681 21.9622 9.64556e-05 21.9631 0.000101695C21.9649 0.000112255 21.9667 0.000391951 21.9685 0.000403746ZM6.92419 17.529C6.14106 17.6538 5.43358 17.7354 4.79775 17.7764C3.92909 18.0908 3.34073 18.6647 2.97698 19.447C2.59914 20.2597 2.4557 21.3164 2.53931 22.5615C2.70668 25.0537 3.77477 28.1667 5.41605 31.2261C7.05438 34.28 9.24177 37.2396 11.6072 39.4289C13.9859 41.6305 16.4783 42.9928 18.7308 42.9928C19.294 42.9928 19.8329 42.9545 20.3489 42.881C16.7831 41.199 14.4688 37.6567 12.8834 33.5449C11.1128 28.9529 10.2074 23.5384 9.50885 18.9124C8.5087 18.3018 7.63594 17.8126 6.92419 17.529ZM36.9962 17.529C36.2844 17.8127 35.4117 18.3018 34.4115 18.9124C33.713 23.5384 32.8079 28.953 31.0373 33.5449C29.4518 37.6568 27.1374 41.199 23.5715 42.881C24.0876 42.9545 24.6266 42.9928 25.1899 42.9928C27.4424 42.9928 29.9347 41.6305 32.3135 39.4289C34.6789 37.2396 36.8663 34.28 38.5046 31.2261C40.1459 28.1667 41.214 25.0537 41.3814 22.5615C41.465 21.3164 41.3215 20.2597 40.9437 19.447C40.5799 18.6646 39.9914 18.0907 39.1226 17.7764C38.4868 17.7354 37.7793 17.6538 36.9962 17.529ZM33.3746 19.5573C32.166 20.3197 30.6875 21.3028 29.3107 22.1087L29.9123 22.999C30.0392 23.2216 30.0098 23.3849 29.7871 23.5117C29.5645 23.6385 29.2812 23.5609 29.1543 23.3383L28.649 22.4512C27.3851 23.1577 26.1 23.7894 24.857 24.2249C23.9695 24.7186 22.7042 26.3121 21.6794 26.2635C20.6545 26.3121 19.9509 24.7187 19.0634 24.2249C16.1883 23.2176 13.0878 21.1609 10.5458 19.5573C11.2285 23.9979 12.1161 28.9762 13.7491 33.2112C15.4892 37.7242 18.0318 41.28 21.9603 42.5171C25.8888 41.28 28.4314 37.7242 30.1716 33.2112C31.8046 28.9762 32.6919 23.9979 33.3746 19.5573ZM21.9603 14.1753C18.5547 15.0769 14.5727 16.1038 10.154 16.9548C10.222 17.41 10.2911 17.874 10.3622 18.3476C11.7911 19.2331 13.3703 20.2738 14.9829 21.2167C14.5428 20.7701 13.9685 20.1798 14.4198 19.5863C14.4683 19.5225 13.5236 20.4346 16.7451 20.4773C19.0889 20.4346 19.2195 19.4806 19.2195 19.4806C19.2195 20.4191 18.6968 21.2354 17.9267 21.6547C18.0445 21.9414 18.1572 22.1674 18.272 22.3531C18.5667 22.8296 18.8804 23.0521 19.4458 23.3755C20.3307 23.68 21.1751 23.872 21.9603 23.9147C22.745 23.872 23.5888 23.6802 24.4731 23.3761C25.3333 22.8743 26.0016 21.9903 26.6772 20.4773L24.0922 21.9504C23.8958 22.1087 23.5863 21.9996 23.4594 21.777C23.3326 21.5544 23.4102 21.2711 23.6328 21.1443L27.261 19.5863C27.4837 19.4595 27.767 19.537 27.8938 19.7596L28.8595 21.2184C30.4522 20.2843 32.1462 19.2226 33.5582 18.3476C33.6293 17.874 33.6984 17.41 33.7663 16.9548C29.3478 16.1038 25.3659 15.0769 21.9603 14.1753ZM16.1661 21.8861C16.5343 22.0857 16.9032 22.2766 17.2707 22.4567C17.1928 22.2996 17.1161 22.1272 17.0396 21.9365C16.943 21.948 16.8448 21.955 16.7451 21.955C16.5457 21.9549 16.3519 21.9307 16.1661 21.8861ZM27.6114 20.6296C27.3609 21.3128 27.0686 21.9053 26.7379 22.4132C27.2213 22.1741 27.7063 21.9159 28.1899 21.6454L27.6114 20.6296ZM9.24154 17.127C8.99871 17.1717 8.7547 17.2163 8.50936 17.2599C8.7746 17.4026 9.04893 17.558 9.33064 17.7232C9.30073 17.5226 9.27089 17.3237 9.24154 17.127ZM34.5897 17.7232C34.8714 17.558 35.1458 17.4026 35.411 17.2599C35.1657 17.2163 34.9217 17.1717 34.6788 17.127C34.6495 17.3237 34.6196 17.5226 34.5897 17.7232ZM21.9603 0.928001C21.6998 0.929618 21.4276 0.945683 21.1445 0.975725C20.7724 1.02461 20.4363 1.11109 20.1378 1.23458C20.0055 1.28922 19.8626 1.27803 19.7451 1.21646C17.6701 1.69508 15.2559 2.73613 12.8438 4.09289C9.87848 5.76082 6.96192 7.88014 4.74912 9.93696C3.64253 10.9656 2.72077 11.9705 2.05784 12.8877C1.38717 13.8156 1.01438 14.6091 0.94115 15.2204C0.905572 15.5175 0.942822 15.7541 1.03358 15.9432C1.12322 16.13 1.28186 16.3057 1.54979 16.4564C2.0999 16.7658 3.07026 16.9449 4.6144 16.8575C5.2861 16.6366 6.06323 16.5441 6.94715 16.5854C7.67613 16.4658 8.39495 16.3398 9.1032 16.209C8.98941 15.4559 8.87878 14.7372 8.76611 14.0609C8.58733 12.9878 8.76203 12.1157 9.45841 11.575C10.1043 11.0736 11.0774 10.9666 12.198 11.0407C14.4428 11.189 17.8096 12.1155 21.9603 13.2157C26.1111 12.1155 29.4778 11.1889 31.7227 11.0407C32.8433 10.9666 33.8164 11.0736 34.4623 11.575C35.1587 12.1157 35.3334 12.9878 35.1546 14.0609C35.0419 14.7372 34.931 15.4558 34.8172 16.209C35.5254 16.3398 36.2443 16.4658 36.9732 16.5854C37.8572 16.544 38.6343 16.6366 39.306 16.8575C40.8503 16.945 41.8207 16.7659 42.3709 16.4564C42.6388 16.3057 42.7975 16.13 42.8871 15.9432C42.9779 15.7541 43.0151 15.5175 42.9795 15.2204C42.9063 14.6091 42.5335 13.8156 41.8628 12.8877C41.1999 11.9705 40.2781 10.9656 39.1716 9.93696C36.9588 7.88014 34.0422 5.76082 31.0769 4.09289C28.6646 2.73607 26.2504 1.69505 24.1753 1.21646C24.0578 1.27793 23.915 1.28918 23.7829 1.23458C23.4843 1.11106 23.1481 1.02461 22.7759 0.975725C22.4929 0.945704 22.2207 0.929617 21.9603 0.928001ZM12.1367 11.9664C11.0489 11.8946 10.3843 12.0311 10.0275 12.3081C9.7212 12.5459 9.52822 12.9875 9.68163 13.9083C9.79367 14.5809 9.90308 15.2934 10.0154 16.0363C13.7238 15.3209 17.1248 14.4805 20.1426 13.6936C16.6973 12.7807 13.9927 12.089 12.1367 11.9664ZM33.8932 12.3081C33.5364 12.0311 32.8718 11.8946 31.784 11.9664C29.9279 12.089 27.2232 12.7807 23.7778 13.6936C26.7956 14.4805 30.1966 15.3209 33.905 16.0363C34.0173 15.2934 34.127 14.5809 34.2391 13.9083C34.3925 12.9875 34.1995 12.5459 33.8932 12.3081Z" fill="#D8F3E8"/>
<path d="M68.2848 25.7313C69.2642 25.7313 72.3031 24.567 70.4405 23.2933C67.3736 21.0053 62.0539 21.6676 62.0539 16.5081C62.0539 6.18691 79.4439 12.1807 74.1023 16.2437C72.9159 15.4928 71.351 15.2156 69.968 15.2156C69.176 15.2156 66.1585 15.9996 67.7828 17.2424C69.9963 18.6578 72.7454 18.5879 74.7815 20.5322C77.0528 22.6558 76.5979 26.4908 74.2499 28.3455C69.9037 31.7653 57.6542 27.4245 63.6485 24.1451C64.9619 25.1715 66.6185 25.7313 68.2848 25.7313Z" fill="#D8F3E8"/>
<path d="M86.822 18.5936C83.7067 18.5936 81.674 22.8234 84.2233 24.9969C85.7164 26.2699 87.8948 26.0202 89.5388 25.2025C94.46 28.8094 84.5288 30.1898 81.8904 28.9623C76.6413 26.4801 76.88 17.8914 82.0972 15.5094C84.6557 14.2995 93.6754 15.1839 89.5683 19.2691C88.7181 18.8712 87.7654 18.5936 86.822 18.5936Z" fill="#D8F3E8"/>
<path d="M107.6 22.2358C107.6 24.9663 106.419 27.5946 103.938 28.9329C100.395 30.8164 95.1338 29.9252 93.0709 26.3187C91.1043 22.7733 92.0805 17.5504 95.8172 15.5975C98.2044 14.3097 101.525 14.2893 103.909 15.5975C106.374 16.9278 107.6 19.5089 107.6 22.2358ZM99.8629 18.5642C96.9189 18.5642 96.6275 23.1758 97.9434 24.9969C98.8501 26.2517 100.876 26.2517 101.782 24.9969C103.058 23.1757 102.81 18.5642 99.8629 18.5642Z" fill="#D8F3E8"/>
<path d="M124.903 22.2358C124.903 24.9663 123.722 27.5946 121.241 28.9329C117.698 30.8164 112.437 29.9252 110.374 26.3187C108.407 22.7733 109.383 17.5504 113.12 15.5975C115.507 14.3097 118.828 14.2893 121.211 15.5975C123.677 16.9278 124.903 19.5089 124.903 22.2358ZM117.166 18.5642C114.222 18.5642 113.93 23.1758 115.246 24.9969C116.153 26.2517 118.179 26.2517 119.085 24.9969C120.361 23.1757 120.113 18.5642 117.166 18.5642Z" fill="#D8F3E8"/>
<path d="M134.764 29.8141C133.568 29.8141 132.451 29.5146 131.368 29.0211V24.8501C132.739 25.8926 134.961 26.5046 136.241 24.9382C138.606 22.0621 136.114 16.9587 132.343 19.0048V27.758H127.352V18.2117C127.352 13.7506 135.909 14.3686 138.367 15.4506C142.376 17.1506 143.21 22.8378 141.202 26.3481C139.878 28.6615 137.384 29.8141 134.764 29.8141ZM132.372 26.5537V34.602C131.097 34.9478 129.108 35.1802 128.002 34.367C126.368 33.1113 127.352 28.2916 127.352 26.5537H132.372Z" fill="#D8F3E8"/>
<path fill-rule="evenodd" clip-rule="evenodd" d="M178.811 19.9478C178.039 19.6893 177.131 19.5133 176.084 19.4245V18.5348H173.987H171.832H170.001V22.1184H171.832H174.253H176.084V20.5693C177.018 20.4801 177.962 20.2994 178.811 19.9478Z" fill="#D8F3E8"/>
<path d="M184.859 21.619H189.879V29.3442C188.604 29.69 186.615 29.9224 185.508 29.1092C183.921 27.8893 184.859 23.3053 184.859 21.619ZM189.879 24.2332H184.859V10.2222C186.869 9.67686 189.879 9.59486 189.879 12.3077V24.2332Z" fill="#D8F3E8"/>
<path d="M193.221 21.619H198.241V29.3442C196.967 29.69 194.977 29.9224 193.871 29.1092C192.284 27.8893 193.221 23.3053 193.221 21.619ZM198.241 24.2332H193.221V15.3038C194.481 14.962 196.511 14.7082 197.592 15.5387C199.349 16.81 198.241 22.4124 198.241 24.2332Z" fill="#D8F3E8"/>
<path d="M213.545 25.1144C213.545 30.2286 206.345 30.7212 202.766 29.1679C201.051 28.3781 200.558 26.0578 202.176 24.9088C203.587 25.6833 205.076 26.1131 206.694 26.1131C207.411 26.1131 209.548 25.3718 208.229 24.4976C205.591 22.7483 201.083 23.9217 201.083 19.2985C201.083 10.4901 216.386 15.5653 211.95 19.2985C211.099 18.7597 205.985 17.4294 205.985 19.2985C205.985 20.4184 211.673 21.565 212.334 22.2065C213.141 22.9506 213.545 23.9199 213.545 25.1144Z" fill="#D8F3E8"/>
<path d="M228.079 25.1144C228.079 30.2286 220.879 30.7212 217.301 29.1679C215.585 28.3781 215.093 26.0578 216.71 24.9088C218.121 25.6833 219.61 26.1131 221.228 26.1131C221.945 26.1131 224.082 25.3718 222.764 24.4976C220.126 22.7483 215.617 23.9217 215.617 19.2985C215.617 10.4901 230.92 15.5653 226.485 19.2985C225.633 18.7597 220.519 17.4294 220.519 19.2985C220.519 20.4184 226.207 21.565 226.868 22.2065C227.676 22.9506 228.079 23.9199 228.079 25.1144Z" fill="#D8F3E8"/>
<path d="M192.985 11.1328C192.985 8.766 196.041 7.59311 197.71 9.25287C201.305 12.8287 192.985 16.1665 192.985 11.1328Z" fill="#D8F3E8"/>
<path d="M176.084 18.5348V19.4245C177.131 19.5133 178.039 19.6893 178.811 19.9478C177.962 20.2994 177.018 20.4801 176.084 20.5693V22.1184H174.253C175.956 22.1184 178.36 24.0119 176.084 25.4375C174.966 26.1221 173.08 26.0567 171.832 25.7019V22.1184H170.001V18.5348H171.832V15.0688C175.534 14.3992 178.426 18.5348 173.987 18.5348H176.084ZM181.281 21.5309C180.727 20.8464 179.906 20.3142 178.811 19.9478C179.5 19.6624 180.126 19.2643 180.632 18.7111C182.355 16.8308 181.55 13.6313 179.48 12.3664C178.161 11.5297 166.812 9.31034 166.812 13.2476C166.812 13.9499 166.704 15.0377 166.577 16.3232C166.124 20.8938 165.424 27.9652 168.436 29.1092C171.787 30.3436 177.062 30.3179 179.982 28.4336C182.144 27.0385 183.014 23.5987 181.281 21.5309ZM146.495 25.7313C145.081 22.5413 144.146 19.2112 143.306 15.8325C147.478 11.683 148.862 17.5184 149.825 21.578C150.263 23.4277 150.614 24.9088 151.102 24.9088C152.182 21.8219 153.013 18.586 153.553 15.3625C161.321 11.2722 156.531 24.3852 155.325 27.0237C154.294 29.2282 146.264 40.0741 145.285 32.2815C146.604 31.1568 147.835 29.8839 148.828 28.463C147.599 28.1033 146.977 26.7944 146.495 25.7313Z" fill="#D8F3E8"/>
</svg>
