<svg width="34" height="49" viewBox="0 0 34 49" fill="none" xmlns="http://www.w3.org/2000/svg">
<path d="M30.6846 27.1868H31.6846C31.6846 26.6345 31.2369 26.1868 30.6846 26.1868V27.1868ZM29.5547 32.8665L30.4786 33.2491L30.4786 33.2491L29.5547 32.8665ZM26.3379 37.6819L27.045 38.389L27.045 38.389L26.3379 37.6819ZM21.5225 40.8997L21.9051 41.8235L21.9051 41.8235L21.5225 40.8997ZM18.5068 41.7874L18.3273 40.8036C17.8521 40.8903 17.5068 41.3043 17.5068 41.7874H18.5068ZM18.5068 43.5706H17.5068C17.5068 43.9117 17.6807 44.2293 17.9681 44.4131L18.5068 43.5706ZM19.3408 44.2395L20.048 43.5324L20.0479 43.5324L19.3408 44.2395ZM20.4131 45.844L21.337 45.4613L21.3369 45.4612L20.4131 45.844ZM20.79 47.7375V48.7375C21.0553 48.7375 21.3096 48.6322 21.4972 48.4446C21.6847 48.2571 21.79 48.0027 21.79 47.7375L20.79 47.7375ZM10.8945 47.7375L9.89453 47.7375C9.89452 48.0027 9.99988 48.2571 10.1874 48.4446C10.3749 48.6322 10.6293 48.7375 10.8945 48.7375V47.7375ZM11.2715 45.844L10.3476 45.4612L10.3476 45.4613L11.2715 45.844ZM12.3438 44.2395L11.6366 43.5324L11.6366 43.5324L12.3438 44.2395ZM12.7979 43.8401L13.4134 44.6282C13.656 44.4387 13.7979 44.1479 13.7979 43.8401H12.7979ZM12.7979 41.7122H13.7979C13.7979 41.2389 13.4661 40.8305 13.003 40.7334L12.7979 41.7122ZM10.1621 40.8997L9.77942 41.8235L9.77943 41.8235L10.1621 40.8997ZM5.34766 37.6819L4.64055 38.389L4.64056 38.389L5.34766 37.6819ZM2.12988 32.8665L1.206 33.2491L1.206 33.2491L2.12988 32.8665ZM1 27.1868V26.1868C0.447715 26.1868 5.96046e-08 26.6345 0 27.1868L1 27.1868ZM30.6846 27.1868H29.6846C29.6846 29.0045 29.3264 30.8043 28.6308 32.4838L29.5547 32.8665L30.4786 33.2491C31.2747 31.3271 31.6846 29.2672 31.6846 27.1868H30.6846ZM29.5547 32.8665L28.6308 32.4838C27.9351 34.1633 26.9159 35.6896 25.6308 36.9748L26.3379 37.6819L27.045 38.389C28.5161 36.9178 29.6825 35.1709 30.4786 33.2491L29.5547 32.8665ZM26.3379 37.6819L25.6308 36.9748C24.3454 38.2602 22.8191 39.2802 21.1398 39.9758L21.5225 40.8997L21.9051 41.8235C23.8273 41.0274 25.5739 39.86 27.045 38.389L26.3379 37.6819ZM21.5225 40.8997L21.1398 39.9758C20.2328 40.3515 19.2897 40.628 18.3273 40.8036L18.5068 41.7874L18.6864 42.7711C19.7865 42.5703 20.8658 42.254 21.9051 41.8235L21.5225 40.8997ZM18.5068 41.7874H17.5068V43.5706H18.5068H19.5068V41.7874H18.5068ZM18.5068 43.5706L17.9681 44.4131C18.2097 44.5675 18.4332 44.7461 18.6337 44.9466L19.3408 44.2395L20.0479 43.5324C19.7418 43.2263 19.4047 42.9577 19.0455 42.7281L18.5068 43.5706ZM19.3408 44.2395L18.6337 44.9466C19.0002 45.3131 19.2909 45.7481 19.4892 46.2268L20.4131 45.844L21.3369 45.4612C21.038 44.7398 20.6 44.0845 20.048 43.5324L19.3408 44.2395ZM20.4131 45.844L19.4892 46.2267C19.6877 46.7058 19.79 47.2195 19.79 47.7376L20.79 47.7375L21.79 47.7375C21.79 46.9563 21.6357 46.1826 21.337 45.4613L20.4131 45.844ZM20.79 47.7375V46.7375H10.8945V47.7375V48.7375H20.79V47.7375ZM10.8945 47.7375L11.8945 47.7376C11.8945 47.2195 11.9969 46.7058 12.1954 46.2267L11.2715 45.844L10.3476 45.4613C10.0488 46.1826 9.89456 46.9563 9.89453 47.7375L10.8945 47.7375ZM11.2715 45.844L12.1953 46.2267C12.3936 45.7481 12.6844 45.3131 13.0509 44.9466L12.3438 44.2395L11.6366 43.5324C11.0846 44.0845 10.6465 44.7398 10.3476 45.4612L11.2715 45.844ZM12.3438 44.2395L13.0509 44.9466C13.161 44.8365 13.2822 44.7307 13.4134 44.6282L12.7979 43.8401L12.1823 43.052C11.9962 43.1973 11.8124 43.3567 11.6366 43.5324L12.3438 44.2395ZM12.7979 43.8401H13.7979V41.7122H12.7979H11.7979V43.8401H12.7979ZM12.7979 41.7122L13.003 40.7334C12.1628 40.5573 11.3394 40.3049 10.5448 39.9758L10.1621 40.8997L9.77943 41.8235C10.6913 42.2013 11.6338 42.4899 12.5927 42.6909L12.7979 41.7122ZM10.1621 40.8997L10.5448 39.9758C8.86575 39.2803 7.34024 38.2602 6.05475 36.9748L5.34766 37.6819L4.64056 38.389C6.11139 39.8598 7.85726 41.0273 9.77942 41.8235L10.1621 40.8997ZM5.34766 37.6819L6.05476 36.9748C4.76934 35.6894 3.74938 34.1631 3.05376 32.4838L2.12988 32.8665L1.206 33.2491C2.00218 35.1713 3.16949 36.9179 4.64055 38.389L5.34766 37.6819ZM2.12988 32.8665L3.05377 32.4838C2.35815 30.8043 2 29.0045 2 27.1868L1 27.1868L0 27.1868C-2.38419e-07 29.2672 0.409917 31.3271 1.206 33.2491L2.12988 32.8665ZM1 27.1868V28.1868H30.6846V27.1868V26.1868H1V27.1868Z" fill="#257454"/>
<path d="M12.5709 41.7375H12H18.66" stroke="#257454" stroke-width="1.8"/>
<line x1="12.7979" y1="43.3015" x2="17.7453" y2="43.3015" stroke="#257454" stroke-width="0.5" stroke-dasharray="2 2"/>
<path d="M15.5127 7.39697L15.5127 6.39697H15.5127V7.39697ZM24.9951 14.9087L25.9951 14.9087V14.9087H24.9951ZM22.793 19.7183L22.1047 18.9928C21.8299 19.2535 21.726 19.6472 21.8363 20.0095C21.9467 20.3719 22.2523 20.6409 22.6258 20.7042L22.793 19.7183ZM24.4404 20.1099L24.738 19.1552L24.738 19.1552L24.4404 20.1099ZM27.7227 21.7603L28.324 20.9612L28.3239 20.9612L27.7227 21.7603ZM29.915 24.229L30.7911 23.7468L30.7911 23.7467L29.915 24.229ZM30.6846 27.1421V28.1421C30.9498 28.1421 31.2041 28.0367 31.3917 27.8492C31.5792 27.6616 31.6846 27.4073 31.6846 27.1421L30.6846 27.1421ZM30.0244 27.1421V26.1421C29.7573 26.1421 29.5012 26.249 29.3134 26.4389C29.1255 26.6289 29.0215 26.8861 29.0245 27.1533L30.0244 27.1421ZM30.0254 27.187V28.187C30.5777 28.187 31.0254 27.7393 31.0254 27.187H30.0254ZM1 27.187H0C-1.19209e-07 27.4522 0.105357 27.7066 0.292893 27.8941C0.48043 28.0817 0.734783 28.187 1 28.187V27.187ZM5.25098 21.8042L4.78655 20.9186L4.78651 20.9186L5.25098 21.8042ZM9.02148 20.3813L9.27519 21.3486C9.64695 21.2511 9.92993 20.9492 10.0032 20.5719C10.0764 20.1946 9.92693 19.8087 9.61865 19.5792L9.02148 20.3813ZM6.03027 14.9087H5.03027V14.9087L6.03027 14.9087ZM15.5127 7.39697L15.5127 8.39697C20.4269 8.397 23.9951 11.5172 23.9951 14.9087H24.9951H25.9951C25.9951 10.0033 21.072 6.397 15.5127 6.39697L15.5127 7.39697ZM24.9951 14.9087L23.9951 14.9086C23.995 16.4211 23.3134 17.8461 22.1047 18.9928L22.793 19.7183L23.4812 20.4437C25.0197 18.9841 25.995 17.0572 25.9951 14.9087L24.9951 14.9087ZM22.793 19.7183L22.6258 20.7042C23.1463 20.7924 23.6539 20.9122 24.1429 21.0646L24.4404 20.1099L24.738 19.1552C24.1581 18.9744 23.5629 18.8345 22.9601 18.7323L22.793 19.7183ZM24.4404 20.1099L24.1429 21.0646C25.2708 21.4161 26.2818 21.9275 27.1214 22.5593L27.7227 21.7603L28.3239 20.9612C27.285 20.1794 26.0644 19.5686 24.738 19.1552L24.4404 20.1099ZM27.7227 21.7603L27.1214 22.5593C27.9606 23.1909 28.6064 23.9255 29.039 24.7113L29.915 24.229L30.7911 23.7467C30.2071 22.686 29.3628 21.743 28.324 20.9612L27.7227 21.7603ZM29.915 24.229L29.039 24.7112C29.4704 25.495 29.6846 26.3202 29.6846 27.1421L30.6846 27.1421L31.6846 27.1421C31.6845 25.965 31.3763 24.8099 30.7911 23.7468L29.915 24.229ZM30.6846 27.1421V26.1421H30.0244V27.1421V28.1421H30.6846V27.1421ZM30.0244 27.1421L29.0245 27.1533C29.0246 27.1639 29.0248 27.1732 29.025 27.1798C29.0251 27.1857 29.0254 27.1924 29.0254 27.1943C29.0255 27.1975 29.0255 27.1976 29.0255 27.1968C29.0255 27.1957 29.0254 27.1922 29.0254 27.187H30.0254H31.0254C31.0254 27.1632 31.0247 27.1424 31.0245 27.1348C31.0244 27.1292 31.0243 27.1284 31.0243 27.1268C31.0243 27.1259 31.0243 27.1277 31.0244 27.1309L30.0244 27.1421ZM30.0254 27.187V26.187H1V27.187V28.187H30.0254V27.187ZM1 27.187H2C2 25.7137 3.13394 24.0437 5.71544 22.6898L5.25098 21.8042L4.78651 20.9186C1.92469 22.4195 7.15256e-07 24.6229 0 27.187H1ZM5.25098 21.8042L5.7154 22.6898C6.75041 22.147 7.9534 21.6953 9.27519 21.3486L9.02148 20.3813L8.76778 19.4141C7.32609 19.7922 5.97752 20.294 4.78655 20.9186L5.25098 21.8042ZM9.02148 20.3813L9.61865 19.5792C7.97704 18.3571 7.03036 16.6885 7.03027 14.9086L6.03027 14.9087L5.03027 14.9087C5.0304 17.4457 6.38537 19.6655 8.42432 21.1835L9.02148 20.3813ZM6.03027 14.9087H7.03027C7.03027 11.5172 10.5984 8.39697 15.5127 8.39697V7.39697V6.39697C9.95337 6.39697 5.03027 10.0033 5.03027 14.9087H6.03027Z" fill="#257454"/>
<rect x="31.2598" y="7.39697" width="2.66401" height="14.4618" rx="1.33201" transform="rotate(34.4762 31.2598 7.39697)" stroke="#257454" stroke-linejoin="round"/>
<circle cx="15.4272" cy="6.02573" r="1.4618" transform="rotate(17.6907 15.4272 6.02573)" fill="#257454" stroke="#257454"/>
<path d="M15.2918 5.15876C14.4299 0.919742 12.4887 0.725313 11.6259 1.15797" stroke="#257454" stroke-width="2" stroke-linecap="round"/>
</svg>
