<svg width="35" height="48" viewBox="0 0 35 48" fill="none" xmlns="http://www.w3.org/2000/svg">
<path d="M29.3274 47L31.5774 28.9231C27.4107 28.751 28.6335 22.9836 18.8274 22.9836C14.3274 22.9836 14.1631 25.566 1.66311 20.9176L3.82739 47H29.3274Z" fill="#B2E6D1"/>
<path d="M3.82739 47H29.3274L31.5774 28.9231M3.82739 47L1.00707 13.0116C0.910338 11.8458 1.83042 10.8462 3.00022 10.8462H31.563C32.7656 10.8462 33.6962 11.8999 33.5477 13.0932L31.5774 28.9231M3.82739 47L1.66311 20.9176C14.1631 25.566 14.3274 22.9836 18.8274 22.9836C28.6335 22.9836 27.4107 28.751 31.5774 28.9231" stroke="#257454" stroke-width="2" stroke-linecap="round" stroke-linejoin="round"/>
<rect width="2.47397" height="38.0349" rx="1.23698" transform="matrix(0.988242 0.1529 -0.50172 0.86503 28.9104 0)" fill="#257454"/>
</svg>
