<svg width="35" height="35" viewBox="0 0 35 35" fill="none" xmlns="http://www.w3.org/2000/svg">
<path d="M11.2086 2.67113C13.5334 4.98776 13.5821 8.77297 11.3177 11.1504L10.5955 11.9085C9.61562 12.9373 9.65789 14.5816 10.6893 15.5571L20.134 24.4902C21.0881 25.3926 22.5789 25.3532 23.4853 24.4015L24.0486 23.8102C26.2952 21.4515 30.006 21.4024 32.3125 23.7008C34.6351 26.0153 34.653 29.9049 31.7858 31.4694C28.7697 33.1152 25.3684 34 21.8526 34C15.1915 34 1 19.831 1 13.2207C1 9.69227 1.87717 6.25644 3.53463 3.21826C5.10158 0.345994 8.90016 0.370758 11.2086 2.67113Z" stroke="#194D38" stroke-width="2" stroke-linejoin="round"/>
<path d="M22.8528 18.1694C22.8528 17.4176 22.7032 16.6726 22.4123 15.977C22.1214 15.2814 21.6945 14.6483 21.1552 14.1141C20.6159 13.5799 19.9747 13.1551 19.2678 12.865C18.5608 12.575 17.8025 12.4256 17.0363 12.4256C16.6374 12.4256 16.314 12.0974 16.314 11.6927C16.314 11.2879 16.6374 10.9598 17.0363 10.9598C17.9875 10.9598 18.9299 11.1454 19.8095 11.5063C20.6892 11.8672 21.4896 12.3966 22.1646 13.0651C22.8396 13.7338 23.3759 14.5287 23.7422 15.4047C24.1085 16.2807 24.2975 17.2201 24.2975 18.1694C24.2975 18.5741 23.9741 18.9022 23.5752 18.9023C23.1762 18.9023 22.8528 18.5741 22.8528 18.1694ZM27.5829 18.1694C27.5829 16.8054 27.3111 15.4543 26.7826 14.1931C26.2541 12.9318 25.4789 11.7845 24.5004 10.8172C23.5219 9.84987 22.3594 9.08144 21.0785 8.55693C19.7975 8.0324 18.4239 7.76219 17.0363 7.76219C16.6374 7.76219 16.314 7.43406 16.314 7.02929C16.314 6.62452 16.6374 6.29639 17.0363 6.29639C18.6085 6.29639 20.1657 6.60247 21.6191 7.19763C23.0726 7.7928 24.3946 8.66579 25.5089 9.76736C26.6232 10.8689 27.5081 12.1776 28.1122 13.6194C28.7164 15.0613 29.0276 16.6075 29.0276 18.1694C29.0276 18.5741 28.7042 18.9023 28.3053 18.9023C27.9063 18.9023 27.5829 18.5741 27.5829 18.1694ZM25.3568 18.04C25.3568 16.9652 25.1427 15.9003 24.7262 14.9063C24.3095 13.9121 23.6985 13.0074 22.9267 12.2446C22.1549 11.4818 21.2375 10.8758 20.2266 10.4619C19.2157 10.048 18.1316 9.83464 17.0363 9.83464C16.6374 9.83464 16.314 9.50651 16.314 9.10174C16.314 8.69702 16.6374 8.36884 17.0363 8.36884C18.3161 8.36884 19.5839 8.61811 20.7672 9.1026C21.9506 9.58708 23.027 10.2977 23.9347 11.1948C24.8423 12.0919 25.5635 13.1579 26.0558 14.3325C26.5481 15.5073 26.8015 16.7673 26.8015 18.04C26.8015 18.4447 26.4781 18.7729 26.0792 18.7729C25.6803 18.7728 25.3569 18.4446 25.3568 18.04Z" fill="#194D38"/>
</svg>
