<svg width="52" height="48" viewBox="0 0 52 48" fill="none" xmlns="http://www.w3.org/2000/svg">
<path d="M12 0C18.6274 0 24 5.37258 24 12C24 18.6274 18.6274 24 12 24C11.1352 24 10.2924 23.9053 9.47949 23.7314L12.4248 32.3232C12.8043 33.4301 13.3993 34.4509 14.1748 35.3271L19.6748 41.542C21.38 43.4686 20.6715 46.5024 18.2891 47.4736C16.3797 48.2518 14.201 47.3342 13.4229 45.4248L3.06348 20.0059C1.15949 17.882 0 15.0769 0 12C0 5.37258 5.37258 0 12 0Z" fill="#8BDABA"/>
<path d="M40.5 0C46.8513 2.57703e-07 52 5.14873 52 11.5V12.5C52 18.8513 46.8513 24 40.5 24H39.5C38.8213 24 38.1571 23.937 37.5107 23.8242L40.4248 32.3232C40.8043 33.4301 41.3993 34.4509 42.1748 35.3271L47.6748 41.542C49.38 43.4686 48.6715 46.5024 46.2891 47.4736C44.3797 48.2518 42.201 47.3342 41.4229 45.4248L31.2812 20.54C29.2525 18.4664 28 15.6302 28 12.5V11.5C28 5.14873 33.1487 0 39.5 0H40.5Z" fill="#8BDABA"/>
</svg>
