<svg width="166" height="115" viewBox="0 0 166 115" fill="none" xmlns="http://www.w3.org/2000/svg">
<path d="M77.2857 90.0025H19C10.1634 90.0025 3 82.839 3 74.0025V19C3 10.1635 10.1634 3 19 3H147C155.837 3 163 10.1634 163 19V79.8438C163 85.4543 158.452 90.0025 152.841 90.0025" stroke="#194D38" stroke-width="6" stroke-linecap="round"/>
<path d="M5.53955 26.7275C126.033 26.7275 159.026 26.7275 160.46 26.7275" stroke="#194D38" stroke-width="5" stroke-linecap="round"/>
<rect x="17" y="72.4531" width="10" height="10" rx="5" fill="#194D38"/>
<path d="M119.086 54C122.952 54 126.086 57.134 126.086 61V68.1279C126.086 68.4997 126.057 68.8646 126.001 69.2207H131.54L131.928 69.2256C140.033 69.4315 146.54 76.0661 146.54 84.2207V99.2832L146.535 99.6699C146.333 107.646 139.904 114.076 131.928 114.278L131.54 114.283H101C92.845 114.283 86.2101 107.775 86.0049 99.6699L86 99.2832V84.2207C86 75.9364 92.7157 69.2207 101 69.2207H106.537C106.481 68.8646 106.451 68.4997 106.451 68.1279V61C106.451 57.1343 109.586 54.0005 113.451 54H119.086ZM101 75.2207C96.0294 75.2207 92 79.2501 92 84.2207V99.2832L92.0117 99.7461C92.2527 104.502 96.1848 108.283 101 108.283H131.54L132.003 108.271C136.605 108.038 140.295 104.348 140.528 99.7461L140.54 99.2832V84.2207C140.54 79.4057 136.758 75.4736 132.003 75.2324L131.54 75.2207H101ZM116.481 77.2471C119.432 77.2471 121.678 79.719 121.678 82.584C121.678 84.6719 120.484 86.5493 118.695 87.415V93.04C118.695 94.1446 117.8 95.04 116.695 95.04C115.591 95.0398 114.695 94.1444 114.695 93.04V87.5986C112.672 86.8404 111.286 84.834 111.286 82.584C111.286 79.7193 113.532 77.2476 116.481 77.2471ZM116.481 81.2471C115.902 81.2476 115.286 81.7636 115.286 82.584C115.286 83.4045 115.902 83.9203 116.481 83.9209C117.061 83.9209 117.678 83.4049 117.678 82.584C117.678 81.7631 117.061 81.2471 116.481 81.2471ZM113.451 60C112.899 60.0005 112.451 60.448 112.451 61V68.1279C112.451 68.6799 112.899 69.1275 113.451 69.1279H119.086C119.638 69.1279 120.086 68.6802 120.086 68.1279V61C120.086 60.4477 119.638 60 119.086 60H113.451Z" fill="#194D38"/>
</svg>
