<svg width="36" height="31" viewBox="0 0 36 31" fill="none" xmlns="http://www.w3.org/2000/svg">
<path d="M19.3164 17.158H20.3164C20.3164 16.6057 19.8687 16.158 19.3164 16.158V17.158ZM18.6191 20.6628L19.543 21.0455L19.543 21.0455L18.6191 20.6628ZM16.6338 23.6335L17.3409 24.3407L17.3409 24.3406L16.6338 23.6335ZM13.6631 25.6189L14.0458 26.5428L14.0458 26.5428L13.6631 25.6189ZM11.8018 26.1648L11.6222 25.181C11.147 25.2678 10.8018 25.6818 10.8018 26.1648H11.8018ZM11.8018 27.2673H10.8018C10.8018 27.6085 10.9757 27.9261 11.2631 28.1098L11.8018 27.2673ZM12.3164 27.6794L13.0235 26.9723L13.0235 26.9723L12.3164 27.6794ZM12.9785 28.6697L13.9024 28.287L13.9024 28.2869L12.9785 28.6697ZM13.2109 29.8386V30.8386C13.7632 30.8386 14.2109 30.3909 14.2109 29.8386H13.2109ZM7.10547 29.8386H6.10547C6.10547 30.3909 6.55318 30.8386 7.10547 30.8386V29.8386ZM7.33789 28.6697L6.41405 28.2869L6.41401 28.287L7.33789 28.6697ZM7.99902 27.6794L7.29192 26.9723L7.29187 26.9724L7.99902 27.6794ZM8.2793 27.4353L8.89524 28.2231C9.13764 28.0336 9.2793 27.743 9.2793 27.4353H8.2793ZM8.2793 26.1189H9.2793C9.2793 25.6457 8.94763 25.2373 8.4845 25.1402L8.2793 26.1189ZM6.65332 25.6189L6.27063 26.5428L6.27064 26.5428L6.65332 25.6189ZM3.68262 23.6335L2.97551 24.3407L2.97552 24.3407L3.68262 23.6335ZM1.69727 20.6628L0.773386 21.0455L0.773398 21.0456L1.69727 20.6628ZM1 17.158V16.158C0.447715 16.158 5.96046e-08 16.6057 0 17.158L1 17.158ZM19.3164 17.158H18.3164C18.3164 18.2292 18.1053 19.2903 17.6953 20.2802L18.6191 20.6628L19.543 21.0455C20.0535 19.8131 20.3164 18.492 20.3164 17.158H19.3164ZM18.6191 20.6628L17.6953 20.2801C17.2854 21.2697 16.6843 22.1688 15.9267 22.9264L16.6338 23.6335L17.3409 24.3406C18.284 23.3976 19.0325 22.278 19.543 21.0455L18.6191 20.6628ZM16.6338 23.6335L15.9267 22.9264C15.1691 23.684 14.2699 24.2851 13.2804 24.695L13.6631 25.6189L14.0458 26.5428C15.2782 26.0322 16.3978 25.2837 17.3409 24.3407L16.6338 23.6335ZM13.6631 25.6189L13.2804 24.695C12.7479 24.9156 12.1917 25.0771 11.6222 25.181L11.8018 26.1648L11.9813 27.1485C12.6844 27.0202 13.3773 26.8197 14.0458 26.5428L13.6631 25.6189ZM11.8018 26.1648H10.8018V27.2673H11.8018H12.8018V26.1648H11.8018ZM11.8018 27.2673L11.2631 28.1098C11.3909 28.1916 11.5069 28.2842 11.6094 28.3866L12.3164 27.6794L13.0235 26.9723C12.8133 26.7622 12.5832 26.58 12.3404 26.4248L11.8018 27.2673ZM12.3164 27.6794L11.6093 28.3865C11.8003 28.5775 11.9517 28.804 12.0547 29.0524L12.9785 28.6697L13.9024 28.2869C13.6985 27.7948 13.3994 27.3482 13.0235 26.9723L12.3164 27.6794ZM12.9785 28.6697L12.0546 29.0524C12.1577 29.3013 12.2109 29.5689 12.2109 29.8386H13.2109H14.2109C14.2109 29.3066 14.1061 28.7788 13.9024 28.287L12.9785 28.6697ZM13.2109 29.8386V28.8386H7.10547V29.8386V30.8386H13.2109V29.8386ZM7.10547 29.8386H8.10547C8.10547 29.5689 8.15867 29.3013 8.26177 29.0524L7.33789 28.6697L6.41401 28.287C6.21028 28.7788 6.10547 29.3066 6.10547 29.8386H7.10547ZM7.33789 28.6697L8.26173 29.0525C8.36517 28.8028 8.51622 28.5765 8.70618 28.3865L7.99902 27.6794L7.29187 26.9724C6.91518 27.3491 6.61738 27.7962 6.41405 28.2869L7.33789 28.6697ZM7.99902 27.6794L8.70613 28.3865C8.75513 28.3376 8.81604 28.285 8.89524 28.2231L8.2793 27.4353L7.66335 26.6475C7.54761 26.738 7.41862 26.8456 7.29192 26.9723L7.99902 27.6794ZM8.2793 27.4353H9.2793V26.1189H8.2793H7.2793V27.4353H8.2793ZM8.2793 26.1189L8.4845 25.1402C7.98751 25.036 7.50237 24.8882 7.036 24.695L6.65332 25.6189L6.27064 26.5428C6.8569 26.7856 7.46132 26.9691 8.0741 27.0976L8.2793 26.1189ZM6.65332 25.6189L7.03601 24.695C6.04646 24.2851 5.14736 23.6841 4.38972 22.9264L3.68262 23.6335L2.97552 24.3407C3.91861 25.2837 5.0381 26.0322 6.27063 26.5428L6.65332 25.6189ZM3.68262 23.6335L4.38972 22.9264C3.63213 22.1688 3.03105 21.2697 2.62113 20.2801L1.69727 20.6628L0.773398 21.0456C1.28394 22.278 2.03243 23.3976 2.97551 24.3407L3.68262 23.6335ZM1.69727 20.6628L2.62115 20.2802C2.21114 19.2903 2 18.2292 2 17.158L1 17.158L0 17.158C-1.19209e-07 18.492 0.262917 19.8131 0.773386 21.0455L1.69727 20.6628ZM1 17.158V18.158H19.3164V17.158V16.158H1V17.158Z" fill="#257454"/>
<path d="M8.13934 26.136H7.78711H11.8965" stroke="#257454" stroke-width="1.8"/>
<line x1="8.27954" y1="27.0054" x2="11.3322" y2="27.0054" stroke="#257454" stroke-width="0.5" stroke-dasharray="2 2"/>
<path d="M9.9541 4.94702V3.94702H9.95405L9.9541 4.94702ZM15.8047 9.58179H16.8047V9.58178L15.8047 9.58179ZM14.4463 12.5496L13.7581 11.8241C13.4832 12.0848 13.3793 12.4784 13.4897 12.8408C13.6 13.2033 13.9057 13.4722 14.2792 13.5355L14.4463 12.5496ZM15.4639 12.7917L15.7615 11.8371L15.7614 11.837L15.4639 12.7917ZM17.4883 13.8093L18.0896 13.0103L18.0896 13.0103L17.4883 13.8093ZM18.8408 15.3328L19.7169 14.8505L19.7168 14.8504L18.8408 15.3328ZM19.3164 17.1306V18.1306C19.8687 18.1306 20.3164 17.6829 20.3164 17.1306H19.3164ZM18.9082 17.1306V16.1306C18.6411 16.1306 18.385 16.2375 18.1972 16.4274C18.0093 16.6174 17.9053 16.8746 17.9083 17.1417L18.9082 17.1306ZM18.9092 17.158V18.158C19.4615 18.158 19.9092 17.7102 19.9092 17.158H18.9092ZM1 17.158H0C-1.19209e-07 17.4232 0.105357 17.6775 0.292893 17.8651C0.48043 18.0526 0.734783 18.158 1 18.158V17.158ZM3.62305 13.8367L3.15863 12.9511L3.15858 12.9511L3.62305 13.8367ZM5.94922 12.9587L6.20294 13.926C6.57469 13.8285 6.85766 13.5266 6.93089 13.1493C7.00413 12.772 6.85467 12.3861 6.5464 12.1566L5.94922 12.9587ZM4.10352 9.58179L3.10352 9.58178V9.58179H4.10352ZM9.9541 4.94702V5.94702C12.8627 5.94702 14.8047 7.77904 14.8047 9.5818L15.8047 9.58179L16.8047 9.58178C16.8047 6.26522 13.5079 3.94702 9.9541 3.94702V4.94702ZM15.8047 9.58179H14.8047C14.8047 10.3935 14.4406 11.1766 13.7581 11.8241L14.4463 12.5496L15.1345 13.2751C16.1474 12.3143 16.8047 11.0292 16.8047 9.58179H15.8047ZM14.4463 12.5496L14.2792 13.5355C14.5841 13.5872 14.8813 13.6576 15.1663 13.7464L15.4639 12.7917L15.7614 11.837C15.3865 11.7202 15.002 11.6295 14.6134 11.5636L14.4463 12.5496ZM15.4639 12.7917L15.1662 13.7464C15.8244 13.9516 16.4076 14.2476 16.887 14.6084L17.4883 13.8093L18.0896 13.0103C17.4102 12.4991 16.6174 12.1039 15.7615 11.8371L15.4639 12.7917ZM17.4883 13.8093L16.887 14.6084C17.3663 14.9691 17.7267 15.3826 17.9648 15.8151L18.8408 15.3328L19.7168 14.8504C19.3277 14.1436 18.769 13.5216 18.0896 13.0103L17.4883 13.8093ZM18.8408 15.3328L17.9648 15.815C18.2019 16.2457 18.3164 16.6921 18.3164 17.1306H19.3164H20.3164C20.3164 16.3356 20.107 15.5594 19.7169 14.8505L18.8408 15.3328ZM19.3164 17.1306V16.1306H18.9082V17.1306V18.1306H19.3164V17.1306ZM18.9082 17.1306L17.9083 17.1417C17.9084 17.1578 17.9089 17.1711 17.9093 17.1797C17.9095 17.184 17.9097 17.1877 17.9098 17.1902C17.9099 17.1923 17.91 17.1948 17.91 17.195C17.9101 17.1971 17.9099 17.1932 17.9097 17.1878C17.9095 17.1819 17.9092 17.1714 17.9092 17.158H18.9092H19.9092C19.9092 17.14 19.9088 17.1249 19.9084 17.1144C19.908 17.1045 19.9076 17.096 19.9074 17.0936C19.9072 17.0891 19.9074 17.0922 19.9075 17.0952C19.9077 17.0992 19.908 17.108 19.9081 17.1195L18.9082 17.1306ZM18.9092 17.158V16.158H1V17.158V18.158H18.9092V17.158ZM1 17.158H2C2 16.4578 2.54829 15.5295 4.08751 14.7223L3.62305 13.8367L3.15858 12.9511C1.33915 13.9053 5.36442e-07 15.3669 0 17.158H1ZM3.62305 13.8367L4.08746 14.7223C4.69622 14.4031 5.41053 14.1339 6.20294 13.926L5.94922 12.9587L5.6955 11.9915C4.78302 12.2308 3.9232 12.5501 3.15863 12.9511L3.62305 13.8367ZM5.94922 12.9587L6.5464 12.1566C5.60954 11.4591 5.10352 10.535 5.10352 9.58179H4.10352H3.10352C3.10352 11.2922 4.01791 12.7676 5.35204 13.7608L5.94922 12.9587ZM4.10352 9.58179L5.10352 9.5818C5.10353 7.7792 7.0456 5.94719 9.95416 5.94702L9.9541 4.94702L9.95405 3.94702C6.40058 3.94722 3.10354 6.26529 3.10352 9.58178L4.10352 9.58179Z" fill="#257454"/>
<rect x="19.6709" y="4.94702" width="1.64375" height="8.92324" rx="0.821877" transform="rotate(34.4762 19.6709 4.94702)" stroke="#257454" stroke-linejoin="round"/>
<circle cx="9.90185" cy="4.10115" r="0.710476" transform="rotate(17.6907 9.90185 4.10115)" fill="#257454" stroke="#257454"/>
<path d="M9.81838 3.56612C9.28654 0.950552 8.08881 0.830585 7.55642 1.09755" stroke="#257454" stroke-width="2" stroke-linecap="round"/>
<path d="M21.614 29.5951L20.5623 21.1452C22.5099 21.0647 21.9384 18.3688 26.5221 18.3688C28.6256 18.3688 28.7024 19.5759 34.5454 17.4031L33.5337 29.5951H21.614Z" fill="#B2E6D1"/>
<path d="M33.5337 29.5951H21.614L20.5623 21.1452M33.5337 29.5951L34.7564 14.8607C34.8531 13.6949 33.933 12.6953 32.7632 12.6953H21.7749C20.5723 12.6953 19.6417 13.749 19.7902 14.9423L20.5623 21.1452M33.5337 29.5951L34.5454 17.4031C28.7024 19.5759 28.6256 18.3688 26.5221 18.3688C21.9384 18.3688 22.5099 21.0647 20.5623 21.1452" stroke="#257454" stroke-width="2" stroke-linecap="round" stroke-linejoin="round"/>
<rect width="1.15643" height="17.779" rx="0.578215" transform="matrix(-0.988242 0.1529 0.50172 0.86503 21.8091 7.62524)" fill="#257454"/>
</svg>
