<svg width="166" height="116" viewBox="0 0 166 116" fill="none" xmlns="http://www.w3.org/2000/svg">
<path d="M42.5895 30.8059C51.6052 36.844 51.794 46.7099 43.0124 52.9064L40.2119 54.8825C36.4117 57.564 36.5757 61.8496 40.5757 64.3923L77.2024 87.6757C80.9025 90.0278 86.6838 89.9249 90.1991 87.4445L92.3834 85.9033C101.096 79.7556 115.486 79.6276 124.431 85.6182C133.438 91.6507 133.508 101.789 122.389 105.867C110.692 110.156 97.5018 112.462 83.8672 112.462C58.0354 112.462 3 75.5319 3 58.3025C3 49.106 6.4017 40.1507 12.8294 32.2319C18.9061 24.7456 33.6371 24.8101 42.5895 30.8059Z" stroke="#194D38" stroke-width="6" stroke-linejoin="round"/>
<path d="M127.108 102.386C137.139 97.7719 145.497 91.6459 151.544 84.4768C157.59 77.3077 161.164 69.2854 161.992 61.0237C162.82 52.762 160.881 44.4797 156.322 36.8106C151.763 29.1414 144.705 22.2886 135.689 16.7764C126.673 11.2642 115.937 7.23858 104.303 5.00762C92.6686 2.77666 80.4443 2.39944 68.5651 3.90481C56.6859 5.41019 45.4666 8.75827 35.7655 13.6929C26.0644 18.6276 18.1385 25.018 12.5943 32.3754" stroke="#194D38" stroke-width="6" stroke-linecap="round" stroke-dasharray="10 20 30 40"/>
<rect x="54.9692" y="16.8203" width="41" height="30" rx="15" fill="#194D38"/>
<path d="M62.4544 41.2963V38.7763L69.8464 32.1883C70.4224 31.6763 70.8224 31.1923 71.0464 30.7363C71.2704 30.2803 71.3824 29.8403 71.3824 29.4163C71.3824 28.8403 71.2584 28.3283 71.0104 27.8803C70.7624 27.4243 70.4184 27.0643 69.9784 26.8003C69.5464 26.5363 69.0464 26.4043 68.4784 26.4043C67.8784 26.4043 67.3464 26.5443 66.8824 26.8243C66.4264 27.0963 66.0704 27.4603 65.8144 27.9163C65.5584 28.3723 65.4384 28.8643 65.4544 29.3923H62.4784C62.4784 28.2403 62.7344 27.2363 63.2464 26.3803C63.7664 25.5243 64.4784 24.8603 65.3824 24.3883C66.2944 23.9163 67.3464 23.6803 68.5384 23.6803C69.6424 23.6803 70.6344 23.9283 71.5144 24.4243C72.3944 24.9123 73.0864 25.5923 73.5904 26.4643C74.0944 27.3283 74.3464 28.3243 74.3464 29.4523C74.3464 30.2763 74.2344 30.9683 74.0104 31.5283C73.7864 32.0883 73.4504 32.6043 73.0024 33.0763C72.5624 33.5483 72.0144 34.0723 71.3584 34.6483L66.1144 39.2923L65.8504 38.5723H74.3464V41.2963H62.4544ZM83.9385 41.3203V38.4643H76.2825V35.7643L81.8145 24.0403H85.1145L79.5825 35.7643H83.9385V31.2643H86.8665V35.7643H88.4865V38.4643H86.8665V41.3203H83.9385Z" fill="white"/>
<path d="M102.047 52.3993C102.563 46.1808 118.044 41.9507 123.007 49.5356C128.643 58.1479 113.226 60.0317 113.226 67.6838" stroke="#194D38" stroke-width="5.5"/>
<rect x="110.431" y="68.4854" width="5.58947" height="3.81826" fill="#194D38"/>
</svg>
