<svg width="35" height="35" viewBox="0 0 35 35" fill="none" xmlns="http://www.w3.org/2000/svg">
<path d="M9.22168 15.0986L8.86901 16.0344L8.86902 16.0344L9.22168 15.0986ZM26.5049 14.9609L26.1375 14.0309L26.1374 14.0309L26.5049 14.9609ZM25.094 34V33H9.99593V34V35H25.094V34ZM1 25.0041H2V20.7862H1H0V25.0041H1ZM9.22168 15.0986L8.86902 16.0344C14.6797 18.2243 21.0972 18.1729 26.8724 15.891L26.5049 14.9609L26.1374 14.0309C20.8242 16.1303 14.9201 16.1776 9.57434 14.1629L9.22168 15.0986ZM34 20.0588H33V25.094H34H35V20.0588H34ZM18.1006 13V12H16.9004V13V14H18.1006V13ZM16.9004 1V2H18.1006V1V0H16.9004V1ZM18.1006 1V2C20.862 2 23.1006 4.23858 23.1006 7H24.1006H25.1006C25.1006 3.13401 21.9666 0 18.1006 0V1ZM10.9004 7H11.9004C11.9004 4.23858 14.139 2 16.9004 2V1V0C13.0344 0 9.90039 3.13401 9.90039 7H10.9004ZM16.9004 13V12C14.139 12 11.9004 9.76142 11.9004 7H10.9004H9.90039C9.90039 10.866 13.0344 14 16.9004 14V13ZM1 20.7862H2C2 17.2371 5.54792 14.7827 8.86901 16.0344L9.22168 15.0986L9.57435 14.1629C4.94525 12.4182 0 15.8393 0 20.7862H1ZM18.1006 13V14C21.9666 14 25.1006 10.866 25.1006 7H24.1006H23.1006C23.1006 9.76142 20.862 12 18.1006 12V13ZM9.99593 34V33C5.5799 33 2 29.4201 2 25.0041H1H0C0 30.5247 4.47533 35 9.99593 35V34ZM26.5049 14.9609L26.8723 15.891C29.8133 14.7292 33 16.8967 33 20.0588H34H35C35 15.4854 30.391 12.3505 26.1375 14.0309L26.5049 14.9609ZM25.094 34V35C30.5649 35 35 30.5649 35 25.094H34H33C33 29.4604 29.4604 33 25.094 33V34Z" fill="#194D38"/>
</svg>
