<?xml version="1.0" standalone="no"?>
<svg xmlns:xlink="http://www.w3.org/1999/xlink" id="wave" style="transform:rotate(0deg); transition: 0.3s" viewBox="0 0 1440 490" version="1.1" xmlns="http://www.w3.org/2000/svg"><defs><linearGradient id="sw-gradient-0" x1="0" x2="0" y1="1" y2="0"><stop stop-color="rgba(25, 77, 56, 1)" offset="0%"/><stop stop-color="rgba(37, 116, 84, 1)" offset="100%"/></linearGradient></defs><path style="transform:translate(0, 0px); opacity:1" fill="url(#sw-gradient-0)" d="M0,0L120,0C240,0,480,0,720,32.7C960,65,1200,131,1440,171.5C1680,212,1920,229,2160,253.2C2400,278,2640,310,2880,294C3120,278,3360,212,3600,187.8C3840,163,4080,180,4320,171.5C4560,163,4800,131,5040,171.5C5280,212,5520,327,5760,343C6000,359,6240,278,6480,277.7C6720,278,6960,359,7200,343C7440,327,7680,212,7920,204.2C8160,196,8400,294,8640,277.7C8880,261,9120,131,9360,130.7C9600,131,9840,261,10080,334.8C10320,408,10560,425,10800,400.2C11040,376,11280,310,11520,245C11760,180,12000,114,12240,138.8C12480,163,12720,278,12960,343C13200,408,13440,425,13680,400.2C13920,376,14160,310,14400,261.3C14640,212,14880,180,15120,155.2C15360,131,15600,114,15840,122.5C16080,131,16320,163,16560,212.3C16800,261,17040,327,17160,359.3L17280,392L17280,490L17160,490C17040,490,16800,490,16560,490C16320,490,16080,490,15840,490C15600,490,15360,490,15120,490C14880,490,14640,490,14400,490C14160,490,13920,490,13680,490C13440,490,13200,490,12960,490C12720,490,12480,490,12240,490C12000,490,11760,490,11520,490C11280,490,11040,490,10800,490C10560,490,10320,490,10080,490C9840,490,9600,490,9360,490C9120,490,8880,490,8640,490C8400,490,8160,490,7920,490C7680,490,7440,490,7200,490C6960,490,6720,490,6480,490C6240,490,6000,490,5760,490C5520,490,5280,490,5040,490C4800,490,4560,490,4320,490C4080,490,3840,490,3600,490C3360,490,3120,490,2880,490C2640,490,2400,490,2160,490C1920,490,1680,490,1440,490C1200,490,960,490,720,490C480,490,240,490,120,490L0,490Z"/></svg>